<svg xmlns="http://www.w3.org/2000/svg" viewBox="0 0 24 30" x="0px" y="0px"><path d="M21.353835,13.6679058 C21.4498863,13.1263474 21.5,12.5689867 21.5,12 C21.5,10.9372076 21.3251565,9.91497769 21.0026856,8.96052632 L18.2997953,8.96052632 C18.4103161,9.64423174 18.4842258,10.3536604 18.5181459,11.0816602 C18.2681461,10.4125356 17.8756124,9.79821337 17.3576571,9.27890748 L16.0593937,7.98184402 C15.8686715,7.79064132 15.6652061,7.61660562 15.4509039,7.46052632 L16.4342973,7.46052632 C15.7325737,4.99304501 14.4884815,3.1760476 13.0656084,2.55919615 C12.9609084,2.54749095 12.8556961,2.53748987 12.75,2.52922133 L12.75,6.5067852 C12.6620481,6.50227102 12.5736824,6.5 12.48497,6.5 C12.0631644,6.5 11.6490914,6.55143381 11.25,6.65126273 L11.25,2.52922133 C11.1429945,2.53759231 11.0364849,2.54773901 10.9305007,2.55963196 C9.50885514,3.17800175 8.26604586,4.99449086 7.56494021,7.46052632 L9.51876836,7.46052632 C9.30463174,7.61629432 9.10125818,7.78993222 8.91054626,7.98064414 L7.97944427,8.91174613 C7.9632745,8.9279159 7.94722782,8.94417634 7.9313047,8.96052632 L7.22151744,8.96052632 C7.15126912,9.35689059 7.09423888,9.76499404 7.05157881,10.183095 C6.69095508,10.886838 6.5,11.671299 6.5,12.48497 C6.5,13.8360278 7.02554468,15.106694 7.98064414,16.0581939 L8.46192395,16.5394737 L7.56508185,16.5394737 C8.26627171,19.0053941 9.50914114,20.8220159 10.9307121,21.4403918 C11.0366265,21.4522745 11.1430656,21.4624133 11.25,21.4707787 L11.25,18.5781169 C11.7191036,18.7346181 12.212859,18.8220677 12.7177455,18.8347016 C12.728503,18.8350404 12.7392545,18.8353374 12.75,18.8355933 L12.75,21.4707787 C12.8578201,21.462344 12.9651367,21.4521064 13.0719197,21.4400961 C13.2439844,21.3650247 13.4134263,21.272398 13.5796014,21.16319 C13.8294029,21.7375817 14.1869053,22.265062 14.6399432,22.7186928 L15.0201018,23.0988514 C14.0575862,23.3604031 13.0450049,23.5 12,23.5 C5.65171525,23.5 0.5,18.3482847 0.5,12 C0.5,5.65171525 5.65171525,0.5 12,0.5 C18.3482847,0.5 23.5,5.65171525 23.5,12 C23.5,13.0453463 23.3603119,14.0582479 23.098595,15.0210452 L22.7186928,14.641143 C22.3157217,14.238172 21.8544747,13.9110523 21.353835,13.6679058 Z M16.296429,3.52599524 C17.0216603,4.59962761 17.6007116,5.94280767 17.9887021,7.46052632 L20.3459747,7.46052632 C19.4265099,5.77476591 18.0111656,4.39775981 16.296429,3.52599524 Z M5.69957144,8.96052632 L2.99731441,8.96052632 C2.67484345,9.91497769 2.5,10.9372076 2.5,12 C2.5,13.0627924 2.67484345,14.0850223 2.99731441,15.0394737 L5.69962987,15.0394737 C5.54311982,14.0711039 5.46006316,13.0511679 5.46006316,12 C5.46006316,10.9487987 5.54309841,9.92886849 5.69957144,8.96052632 Z M7.70217085,20.4732928 C6.97728991,19.399676 6.39850846,18.0567446 6.0106803,16.5394737 L3.65402533,16.5394737 C4.57323982,18.2247752 5.98806393,19.6014905 7.70217085,20.4732928 Z M7.70178296,3.52690454 C5.98785049,4.39871718 4.57317048,5.77535191 3.65402533,7.46052632 L6.01056568,7.46052632 C6.39832125,5.94330048 6.97700367,4.6004594 7.70178296,3.52690454 Z M21.4597953,15.8449206 L22.7464494,17.1316104 C23.3687218,17.7537783 23.71875,18.5980558 23.71875,19.4779894 C23.71875,20.358649 23.3687218,21.2029264 22.7464494,21.8251981 L21.8251958,22.7464505 C21.2030063,23.3687222 20.3587279,23.71875 19.4779842,23.71875 C18.5981533,23.71875 17.7538748,23.3687222 17.1316024,22.7464505 L15.8449297,21.4597794 C15.2453288,20.8593495 14.8985363,20.0514957 14.8758649,19.2023852 C14.8531934,18.3532748 15.1578373,17.5284537 15.7250178,16.8964539 L15.1027454,16.2741822 C14.4707863,16.8421711 13.6459642,17.1460222 12.7968113,17.1233341 C11.9484465,17.1014509 11.1406125,16.75385 10.5394144,16.1542705 L9.25355065,14.8684083 C8.63046928,14.2462196 8.28125,13.4019422 8.28125,12.5211996 C8.28125,11.641349 8.63046928,10.7970715 9.25273962,10.1748019 L10.1739932,9.25354947 C10.7969916,8.63046886 11.6412701,8.28125 12.5212047,8.28125 C13.4018654,8.28125 14.2461439,8.63046886 14.8684163,9.25354947 L16.15428,10.5394116 C16.753881,11.1406505 17.1014678,11.9484836 17.1233448,12.7968058 C17.1460163,13.6459162 16.8421814,14.4707373 16.2741919,15.1027372 L16.8964643,15.7250088 C17.5284234,15.1578289 18.3532248,14.8531647 19.2023985,14.8758569 C20.0515721,14.8985491 20.8594062,15.2453411 21.4597953,15.8449206 Z M11.843842,15.0687793 L11.8527929,15.0694117 C12.4430346,15.6570218 13.3808406,15.7073894 14.0302845,15.1861331 L12.2449172,13.3953313 C11.9253896,13.074747 11.9253896,12.5566834 12.2449172,12.2368974 C12.5644449,11.9163132 13.0828875,11.9163132 13.4024152,12.2368974 L13.4032147,12.2368974 L15.1901771,14.0253046 C15.7086033,13.373023 15.6550862,12.4344586 15.0647627,11.8460523 L15.0647627,11.8452541 L13.7970405,10.5765069 C13.1579034,9.937733 12.1226337,9.937733 11.4843759,10.5765069 L10.5761198,11.4854974 C9.93786202,12.1251514 9.93786202,13.1612581 10.5761198,13.800032 L11.843842,15.0687793 Z M21.4215184,20.516179 L21.421637,20.516222 C21.7292128,20.2094213 21.9025706,19.7931541 21.9025706,19.3585198 C21.9033887,18.9246832 21.7308203,18.5076183 21.4240502,18.2008176 L21.4240502,18.2000179 L20.1562309,16.932072 C19.5650236,16.3424399 18.6239553,16.2921042 17.9736641,16.8154243 L19.7591682,18.605095 C20.0787203,18.9254768 20.0787203,19.4432132 19.7591682,19.7627972 C19.439616,20.083179 18.9211337,20.083179 18.6015816,19.7627972 L18.6007819,19.7627972 L16.8136827,17.9755196 C16.2920161,18.6258348 16.3431444,19.5654221 16.9327156,20.1558498 L18.2005349,21.4237957 C18.839537,22.0621661 19.8748859,22.0621661 20.5139902,21.4237957 L20.5131926,21.4245954 L21.4215184,20.516179 Z"/></svg>